0
SECTION
2
HEADER
9
$INSUNITS
70
4
9
$ACADVER
1
AC1014
9
$HANDSEED
5
FFFF
0
ENDSEC
0
SECTION
2
TABLES
0
TABLE
2
VPORT
5
8
100
AcDbSymbolTable
0
ENDTAB
0
TABLE
2
LTYPE
5
5
100
AcDbSymbolTable
0
LTYPE
5
14
100
AcDbSymbolTableRecord
100
AcDbLinetypeTableRecord
2
BYBLOCK
70
0
0
LTYPE
5
15
100
AcDbSymbolTableRecord
100
AcDbLinetypeTableRecord
2
BYLAYER
70
0
0
ENDTAB
0
TABLE
2
LAYER
5
2
100
AcDbSymbolTable
70
2
0
LAYER
5
50
100
AcDbSymbolTableRecord
100
AcDbLayerTableRecord
2
0
70
0
6
CONTINUOUS
0
ENDTAB
0
TABLE
2
STYLE
5
3
100
AcDbSymbolTable
70
1
0
STYLE
5
11
100
AcDbSymbolTableRecord
100
AcDbTextStyleTableRecord
2
STANDARD
70
0
0
ENDTAB
0
TABLE
2
VIEW
5
6
100
AcDbSymbolTable
70
0
0
ENDTAB
0
TABLE
2
UCS
5
7
100
AcDbSymbolTable
70
0
0
ENDTAB
0
TABLE
2
APPID
5
9
100
AcDbSymbolTable
70
2
0
APPID
5
12
100
AcDbSymbolTableRecord
100
AcDbRegAppTableRecord
2
ACAD
70
0
0
ENDTAB
0
TABLE
2
DIMSTYLE
5
A
100
AcDbSymbolTable
70
1
0
ENDTAB
0
TABLE
2
BLOCK_RECORD
5
1
100
AcDbSymbolTable
70
1
0
BLOCK_RECORD
5
1F
100
AcDbSymbolTableRecord
100
AcDbBlockTableRecord
2
*MODEL_SPACE
0
BLOCK_RECORD
5
1B
100
AcDbSymbolTableRecord
100
AcDbBlockTableRecord
2
*PAPER_SPACE
0
ENDTAB
0
ENDSEC
0
SECTION
2
BLOCKS
0
BLOCK
5
20
100
AcDbEntity
100
AcDbBlockBegin
2
*MODEL_SPACE
0
ENDBLK
5
21
100
AcDbEntity
100
AcDbBlockEnd
0
BLOCK
5
1C
100
AcDbEntity
100
AcDbBlockBegin
2
*PAPER_SPACE
0
ENDBLK
5
1D
100
AcDbEntity
100
AcDbBlockEnd
0
ENDSEC
0
SECTION
2
ENTITIES
0
LWPOLYLINE
5
100
100
AcDbEntity
8
0
100
AcDbPolyline
90
36
70
1
43
0.0
10
-18.044520825602337
20
233.99999652653875
10
-25.270813237302001
20
221.48369615351342
42
-0.41421356237312773
10
-30.734915117571742
20
220.01959552786116
10
-41.646834064399044
20
226.31959750388268
42
-0.41421356237314005
10
-43.110934690051991
20
231.7836993841525
10
-35.871487866859653
20
244.32278385669733
42
0.26794930316096466
10
-35.871487917932669
20
246.32278457246639
10
-53.064133572800607
20
276.10130439736912
42
0.41421356237317053
10
-55.796184550323446
20
276.83335457066215
10
-255.84802600989997
20
161.33330812637661
42
0.41421356237307677
10
-256.58007618319294
20
158.60125714885402
10
-239.36610271796064
20
128.78579649259336
42
0.26794908170117449
10
-237.63405250473022
20
127.78579689470817
10
-223.23923993455344
20
127.78579428797407
42
-0.41421356237305212
10
-219.2392406589081
20
123.78579356362019
10
-219.23924294062249
20
111.18579356361997
42
-0.41421356237309631
10
-223.23924366497641
20
107.18579428797398
10
-237.775872903596
20
107.18579692038956
42
0.26794930316094934
10
-239.50792430550246
20
106.18579651827496
10
-256.6427979086393
20
76.507308944150381
42
0.41421356237324836
10
-255.91074646679459
20
73.775258306535108
10
-55.858851377972712
20
-41.724695249173806
42
0.41421356237303664
10
-53.126800740357908
20
-40.992643807329046
10
-35.970586162464713
20
-11.277192560826172
42
0.26794908170110077
10
-35.970586213537615
20
-9.2771932765963605
10
-43.196863135157244
20
3.2390907355959788
42
-0.41421356237312362
10
-41.732760530533795
20
8.7031920856020584
10
-30.820831464969622
20
15.00319463428381
42
-0.41421281198265664
10
-25.356735238961452
20
13.539100904661723
10
-18.117237573150025
20
0.99999207214869656
42
0.26794861667702913
10
-16.385188682168614
20
-3.8040052707799532e-06
10
17.999999999999503
20
4.1789019705751329e-06
42
0.41421356237309631
10
19.999999535677322
20
2.0000046432242691
10
19.999945906434728
20
233.00000464321883
42
0.41421356237306639
10
17.999945442112466
20
235.00000417889623
10
-16.312470663444564
20
234.99999621288475
42
0.26794908170127529
0
CIRCLE
5
101
100
AcDbEntity
8
0
100
AcDbCircle
10
-97.106783941485944
20
117.49408358318648
30
6.489138115739479e-09
40
8.7499999999999982
210
5.2939559203393759e-23
220
-1.0587911840678752e-22
230
1
0
CIRCLE
5
102
100
AcDbEntity
8
0
100
AcDbCircle
10
-10.062743938596581
20
34.108675398708854
30
1.8813395286088053e-09
40
2.7000000000000024
210
2.6018438095752427e-16
220
-1.502175080170671e-16
230
1
0
CIRCLE
5
103
100
AcDbEntity
8
0
100
AcDbCircle
10
-213.19793586283942
20
83.756030336327356
30
4.6212633719733276e-09
40
2.6999999999999886
210
2.6018443389708347e-16
220
-1.502175080170671e-16
230
1
0
CIRCLE
5
104
100
AcDbEntity
8
0
100
AcDbCircle
10
-68.508987725120534
20
234.85258950571136
30
1.2956640205175063e-08
40
2.6999999999999886
210
2.6018443389708347e-16
220
-1.502175080170671e-16
230
1
0
CIRCLE
5
105
100
AcDbEntity
8
0
100
AcDbCircle
10
-10.062782709446987
20
201.10867539870503
30
1.109448533043178e-08
40
2.7000000000000024
210
2.6018438095752427e-16
220
-1.502175080170671e-16
230
1
0
CIRCLE
5
106
100
AcDbEntity
8
0
100
AcDbCircle
10
-213.13521077165285
20
151.35255592910286
30
8.3496587421905133e-09
40
2.6999999999999886
210
2.6018443389708347e-16
220
-1.502175080170671e-16
230
1
0
CIRCLE
5
107
100
AcDbEntity
8
0
100
AcDbCircle
10
-44.260218729841569
20
-13.635260216462513
30
-7.5193185011812602e-10
40
2.7000000000000024
210
2.6018438095752427e-16
220
-1.502175080170671e-16
230
1
0
CIRCLE
5
108
100
AcDbEntity
8
0
100
AcDbCircle
10
-10.062737438094018
20
6.1086753987098952
30
3.3708147384459153e-10
40
2.7000000000000011
210
2.6018432801796506e-16
220
-1.5021745507750789e-16
230
1
0
CIRCLE
5
109
100
AcDbEntity
8
0
100
AcDbCircle
10
-237.44665041906069
20
97.756024706716516
30
5.3932680543766764e-09
40
2.6999999999999886
210
2.6018443389708347e-16
220
-1.502175080170671e-16
230
1
0
CIRCLE
5
110
100
AcDbEntity
8
0
100
AcDbCircle
10
-44.260279669414331
20
248.85259513532262
30
1.3728822523262352e-08
40
2.6999999999999886
210
2.6018443389708347e-16
220
-1.502175080170671e-16
230
1
0
CIRCLE
5
111
100
AcDbEntity
8
0
100
AcDbCircle
10
-10.062789209947773
20
229.10867539870401
30
1.263970261788927e-08
40
2.7000000000000024
210
2.6018438095752427e-16
220
-1.502175080170671e-16
230
1
0
CIRCLE
5
112
100
AcDbEntity
8
0
100
AcDbCircle
10
-237.38391882735948
20
137.352550299493
30
7.5774764241032244e-09
40
2.6999999999999886
210
2.6018443389708347e-16
220
-1.502175080170671e-16
230
1
0
CIRCLE
5
113
100
AcDbEntity
8
0
100
AcDbCircle
10
-68.50893328606945
20
0.36473415391428787
30
2.0108359422010835e-11
40
2.7000000000000024
210
2.6018438095752427e-16
220
-1.502175080170671e-16
230
1
0
ENDSEC
0
SECTION
2
OBJECTS
0
DICTIONARY
5
C
100
AcDbDictionary
3
ACAD_GROUP
350
D
3
ACAD_MLINESTYLE
350
17
0
DICTIONARY
5
D
100
AcDbDictionary
0
DICTIONARY
5
1A
330
C
100
AcDbDictionary
0
DICTIONARY
5
17
100
AcDbDictionary
0
ENDSEC
0
EOF
