0
SECTION
2
HEADER
9
$INSUNITS
70
4
9
$ACADVER
1
AC1014
9
$HANDSEED
5
FFFF
0
ENDSEC
0
SECTION
2
TABLES
0
TABLE
2
VPORT
5
8
100
AcDbSymbolTable
0
ENDTAB
0
TABLE
2
LTYPE
5
5
100
AcDbSymbolTable
0
LTYPE
5
14
100
AcDbSymbolTableRecord
100
AcDbLinetypeTableRecord
2
BYBLOCK
70
0
0
LTYPE
5
15
100
AcDbSymbolTableRecord
100
AcDbLinetypeTableRecord
2
BYLAYER
70
0
0
ENDTAB
0
TABLE
2
LAYER
5
2
100
AcDbSymbolTable
70
2
0
LAYER
5
50
100
AcDbSymbolTableRecord
100
AcDbLayerTableRecord
2
0
70
0
6
CONTINUOUS
0
ENDTAB
0
TABLE
2
STYLE
5
3
100
AcDbSymbolTable
70
1
0
STYLE
5
11
100
AcDbSymbolTableRecord
100
AcDbTextStyleTableRecord
2
STANDARD
70
0
0
ENDTAB
0
TABLE
2
VIEW
5
6
100
AcDbSymbolTable
70
0
0
ENDTAB
0
TABLE
2
UCS
5
7
100
AcDbSymbolTable
70
0
0
ENDTAB
0
TABLE
2
APPID
5
9
100
AcDbSymbolTable
70
2
0
APPID
5
12
100
AcDbSymbolTableRecord
100
AcDbRegAppTableRecord
2
ACAD
70
0
0
ENDTAB
0
TABLE
2
DIMSTYLE
5
A
100
AcDbSymbolTable
70
1
0
ENDTAB
0
TABLE
2
BLOCK_RECORD
5
1
100
AcDbSymbolTable
70
1
0
BLOCK_RECORD
5
1F
100
AcDbSymbolTableRecord
100
AcDbBlockTableRecord
2
*MODEL_SPACE
0
BLOCK_RECORD
5
1B
100
AcDbSymbolTableRecord
100
AcDbBlockTableRecord
2
*PAPER_SPACE
0
ENDTAB
0
ENDSEC
0
SECTION
2
BLOCKS
0
BLOCK
5
20
100
AcDbEntity
100
AcDbBlockBegin
2
*MODEL_SPACE
0
ENDBLK
5
21
100
AcDbEntity
100
AcDbBlockEnd
0
BLOCK
5
1C
100
AcDbEntity
100
AcDbBlockBegin
2
*PAPER_SPACE
0
ENDBLK
5
1D
100
AcDbEntity
100
AcDbBlockEnd
0
ENDSEC
0
SECTION
2
ENTITIES
0
LINE
5
100
100
AcDbEntity
8
0
100
AcDbLine
10
-18.044574199307508
20
234.00003000219317
30
-1.3018324054314689e-05
11
-25.270866611004816
21
221.48372985381093
31
-1.3019015661086542e-05
0
ARC
5
101
100
AcDbEntity
8
0
100
AcDbCircle
10
-28.73496780179174
20
223.48373048111819
30
-1.3027466731452947e-05
40
3.9999999461555062
210
-2.3892007626982299e-11
220
-4.1382153055779696e-11
230
1
100
AcDbArc
50
239.99998917911648
51
329.999989179127
0
LINE
5
102
100
AcDbEntity
8
0
100
AcDbLine
10
-30.73496842909984
20
220.01962929033127
30
-1.3019096165578503e-05
11
-41.646887180079624
21
226.31963126634957
31
-1.3018747857529434e-05
0
ARC
5
103
100
AcDbEntity
8
0
100
AcDbCircle
10
-39.646886552772372
20
229.78373245713698
30
-1.3022672808435072e-05
40
3.9999999461553881
210
2.3883194282195924e-11
220
-1.3788974662036692e-11
230
1
100
AcDbArc
50
149.99998917912751
51
239.99998917913052
0
LINE
5
104
100
AcDbEntity
8
0
100
AcDbLine
10
-43.110987743559562
20
231.78373308444435
30
-1.3018447120316523e-05
11
-35.871540920369767
21
244.32281733193742
31
-1.3017755016164756e-05
0
ARC
5
105
100
AcDbEntity
8
0
100
AcDbCircle
10
-37.603591515763682
20
245.32281764559121
30
-1.3021992952654664e-05
40
1.999999973078042
210
2.3952420932285338e-11
220
-1.3828942704532505e-11
230
1
100
AcDbArc
50
-30.000010820870735
51
30.000012856571175
0
LINE
5
106
100
AcDbEntity
8
0
100
AcDbLine
10
-35.871540955899647
20
246.3228180207841
30
-1.3017644526769345e-05
11
-53.064186147909602
21
276.10133757844619
31
-1.3016001361165763e-05
0
ARC
5
107
100
AcDbEntity
8
0
100
AcDbCircle
10
-54.796236707773659
20
275.10133720325348
30
-1.3018553443131711e-05
40
1.9999999730777496
210
-2.3998571540067696e-11
220
-1.3855588918859687e-11
230
1
100
AcDbArc
50
30.000012856566634
51
120.00001285658125
0
LINE
5
108
100
AcDbEntity
8
0
100
AcDbLine
10
-55.796237082966783
20
276.83338776311723
30
-1.3015961286555466e-05
11
-255.8480767472405
21
161.33334442829801
31
-1.3022333931189678e-05
0
ARC
5
109
100
AcDbEntity
8
0
100
AcDbCircle
10
-254.8480763720475
20
159.60129386843394
30
-1.3035232325498984e-05
40
1.9999999730778761
210
2.4096290215943748e-11
220
-4.1735977300124824e-11
230
1
100
AcDbArc
50
120.00001285657359
51
210.00001285656964
0
LINE
5
110
100
AcDbEntity
8
0
100
AcDbLine
10
-256.58012693191159
20
158.60129349324109
30
-1.3022485489955216e-05
11
-239.36615393011149
21
128.78583310455255
31
-1.3024128939775892e-05
0
ARC
5
111
100
AcDbEntity
8
0
100
AcDbCircle
10
-237.63410337024726
20
129.78583347974546
30
-1.3020239975249244e-05
40
1.9999999730779856
210
-2.3567827948319496e-11
220
-1.3606898861341136e-11
230
1
100
AcDbArc
50
210.00001285656901
51
269.99998917910023
0
LINE
5
112
100
AcDbEntity
8
0
100
AcDbLine
10
-237.63410374796791
20
127.78583350666784
30
-1.3024184859489196e-05
11
-223.23929137156188
21
127.78583078806398
31
-1.3024184468690692e-05
0
ARC
5
113
100
AcDbEntity
8
0
100
AcDbCircle
10
-223.23929212700224
20
123.78583084190922
30
-1.302440558959006e-05
40
3.9999999461555906
210
-8.8817843165597016e-15
220
1.6774136791824601e-21
230
1
100
AcDbArc
50
-1.0799477291824679e-05
51
89.999989179113669
0
LINE
5
114
100
AcDbEntity
8
0
100
AcDbLine
10
-219.23929218084675
20
123.78583008646928
30
-1.3024405554062923e-05
11
-219.23929456048199
21
111.18583025607956
31
-1.3025100820129865e-05
0
ARC
5
115
100
AcDbEntity
8
0
100
AcDbCircle
10
-223.23929450663843
20
111.18583101151953
30
-1.303123457091579e-05
40
3.9999999461553775
210
-1.0418409011980548e-17
220
-5.5164762390155242e-11
230
1
100
AcDbArc
50
269.99998917912711
51
359.99998920052269
0
LINE
5
116
100
AcDbEntity
8
0
100
AcDbLine
10
-223.23929526207786
20
107.18583106536421
30
-1.3025321692339276e-05
11
-237.77592430501903
21
107.18583381075115
31
-1.3025321123905087e-05
0
ARC
5
117
100
AcDbEntity
8
0
100
AcDbCircle
10
-237.7759246827388
20
105.18583383767356
30
-1.30312178184636e-05
40
1.9999999730776354
210
-1.0389894465412325e-17
220
-5.5013772056775188e-11
230
1
100
AcDbArc
50
89.999989179125478
51
150.00001285657302
0
LINE
5
118
100
AcDbEntity
8
0
100
AcDbLine
10
-239.50797569138177
20
106.18583343555832
30
-1.3025375977804288e-05
11
-256.64284929451264
21
76.507346394104033
31
-1.3027013956445899e-05
0
ARC
5
119
100
AcDbEntity
8
0
100
AcDbCircle
10
-254.91079828587038
20
75.507346796219679
30
-1.3034219190420593e-05
40
1.9999999730768871
210
2.395242664709897e-11
220
-1.3828932806216458e-11
230
1
100
AcDbArc
50
150.00001285657308
51
240.00001285659587
0
LINE
5
120
100
AcDbEntity
8
0
100
AcDbLine
10
-255.91079788375453
20
73.775295787576198
30
-1.3027164804668701e-05
11
-55.858906385469425
21
-41.724657768073214
31
-1.303353670323304e-05
0
ARC
5
121
100
AcDbEntity
8
0
100
AcDbCircle
10
-54.858906787584814
20
-39.99260675943006
30
-1.3030481156216663e-05
40
1.9999999730777853
210
-2.3847581621494805e-11
220
-4.1305244410684626e-11
230
1
100
AcDbArc
50
240.00001285657953
51
330.00001285657225
0
LINE
5
122
100
AcDbEntity
8
0
100
AcDbLine
10
-53.126855778941874
20
-40.992606357314841
30
-1.3033496486514196e-05
11
-35.970641201054576
21
-11.277155644145687
31
-1.3031856518352924e-05
0
ARC
5
123
100
AcDbEntity
8
0
100
AcDbCircle
10
-37.702692209698
20
-10.277156046261773
30
-1.3032562151470093e-05
40
1.9999999730776696
210
2.3952426647096201e-11
220
-1.3828932806199622e-11
230
1
100
AcDbArc
50
-29.999987143399295
51
29.999989179113342
0
LINE
5
124
100
AcDbEntity
8
0
100
AcDbLine
10
-35.970641236584342
20
-9.2771563868381612
30
-1.3031745993430377e-05
11
-43.196917963659388
21
3.2391275130293451
31
-1.3031055203782671e-05
0
ARC
5
125
100
AcDbEntity
8
0
100
AcDbCircle
10
-39.732816017431993
20
5.2391268318773321
30
-1.303211188271935e-05
40
3.9999999461553171
210
2.389199199611211e-11
220
-4.138216208026943e-11
230
1
100
AcDbArc
50
119.99998917911792
51
209.99998917912228
0
LINE
5
126
100
AcDbEntity
8
0
100
AcDbLine
10
-41.732815336279323
20
8.7032287781041973
30
-1.3030754644205444e-05
11
-30.820886368640803
21
15.003231157178476
31
-1.3030405803249323e-05
0
ARC
5
127
100
AcDbEntity
8
0
100
AcDbCircle
10
-28.820887049793651
20
11.539129210951824
30
-1.3030178083085908e-05
40
3.9999999461556452
210
-3.5828592165012627e-11
220
-2.0685760699371463e-11
230
1
100
AcDbArc
50
30.000135970554965
51
119.99998917911724
0
LINE
5
128
100
AcDbEntity
8
0
100
AcDbLine
10
-25.356790227563906
20
13.539137404800776
30
-1.3030806513825155e-05
11
-18.117292756652716
21
1.0000286848168294
31
-1.3030196512886505e-05
0
ARC
5
129
100
AcDbEntity
8
0
100
AcDbCircle
10
-16.385244345537849
20
2.0000327817409906
30
-1.3020449225628234e-05
40
1.9999999730776672
210
-5.5572007873298291e-10
220
-3.2084689545039861e-10
230
1
100
AcDbArc
50
210.00013597054723
51
270.00001285659147
0
LINE
5
130
100
AcDbEntity
8
0
100
AcDbLine
10
-16.385243896758148
20
3.2808663359418233e-05
30
-1.3029023442356902e-05
11
17.999944322547307
21
4.0524346012205115e-05
31
-1.3031233905280715e-05
0
ARC
5
131
100
AcDbEntity
8
0
100
AcDbCircle
10
17.999943873768238
20
2.000040497423913
30
-1.3031233907282077e-05
40
1.9999999730779519
210
1.2308641190290948e-17
220
-5.4853899939068014e-11
230
1
100
AcDbArc
50
-89.999987143426566
51
1.286339701092445e-05
0
LINE
5
132
100
AcDbEntity
8
0
100
AcDbLine
10
19.999943846845973
20
2.0000409462030611
30
-1.3031124161955177e-05
11
19.999892012837268
21
233.00003783667191
31
-1.3018379583229489e-05
0
ARC
5
133
100
AcDbEntity
8
0
100
AcDbCircle
10
17.999892039759573
20
233.00003738789243
30
-1.3018379583229489e-05
40
1.9999999730777476
210
0
220
-0
230
1
100
AcDbArc
50
1.286339701092445e-05
51
90.000012856578763
0
LINE
5
134
100
AcDbEntity
8
0
100
AcDbLine
10
17.999891590980319
20
235.00003736097005
30
-1.3018269271469762e-05
11
-16.312524052693504
21
235.00002966161736
31
-1.3018269591213993e-05
0
ARC
5
135
100
AcDbEntity
8
0
100
AcDbCircle
10
-16.312523603914457
20
233.00002968853988
30
-1.3031156085088296e-05
40
1.9999999730775433
210
1.2304654744318561e-17
220
-5.4836136370446097e-11
230
1
100
AcDbArc
50
90.000012856572866
51
149.99998917912959
0
CIRCLE
5
136
100
AcDbEntity
8
0
100
AcDbCircle
10
-97.106837156359461
20
117.49411924157704
30
-1.3024745619816258e-05
40
8.7499999999999982
210
-1.881559077896859e-14
220
3.0143700836510708e-15
230
1
0
CIRCLE
5
137
100
AcDbEntity
8
0
100
AcDbCircle
10
-10.062798973215186
20
34.108711503100508
30
-1.3029353311821978e-05
40
2.7000000000000024
210
-1.8555406398011088e-14
220
2.8641526550433555e-15
230
1
0
CIRCLE
5
138
100
AcDbEntity
8
0
100
AcDbCircle
10
-213.19798777719495
20
83.756067351073185
30
-1.3026613707722845e-05
40
2.6999999999999886
210
-1.8555406345071529e-14
220
2.8641526550433555e-15
230
1
0
CIRCLE
5
139
100
AcDbEntity
8
0
100
AcDbCircle
10
-68.509040412891991
20
234.85262336207344
30
-1.3018278011145412e-05
40
2.6999999999999886
210
-1.8555406345071529e-14
220
2.8641526550433555e-15
230
1
0
CIRCLE
5
140
100
AcDbEntity
8
0
100
AcDbCircle
10
-10.062836446212486
20
201.10870925508451
30
-1.3020140094965882e-05
40
2.7000000000000024
210
-1.8555406398011088e-14
220
2.8641526550433555e-15
230
1
0
CIRCLE
5
141
100
AcDbEntity
8
0
100
AcDbCircle
10
-213.1352621615215
20
151.35259203343412
30
-1.3022885276825491e-05
40
2.6999999999999886
210
-1.8555406345071529e-14
220
2.8641526550433555e-15
230
1
0
CIRCLE
5
142
100
AcDbEntity
8
0
100
AcDbCircle
10
-44.260273675169657
20
-13.635223203616853
30
-1.3031986689782116e-05
40
2.7000000000000024
210
-1.8555406398011088e-14
220
2.8641526550433555e-15
230
1
0
CIRCLE
5
143
100
AcDbEntity
8
0
100
AcDbCircle
10
-10.062792690316709
20
6.1087118800137397
30
-1.3030897605403879e-05
40
2.7000000000000011
210
-1.8555406450950647e-14
220
2.8641527079829147e-15
230
1
0
CIRCLE
5
144
100
AcDbEntity
8
0
100
AcDbCircle
10
-237.44670189819965
20
97.75606172145514
30
-1.3025841738567578e-05
40
2.6999999999999886
210
-1.8555406345071529e-14
220
2.8641526550433555e-15
230
1
0
CIRCLE
5
145
100
AcDbEntity
8
0
100
AcDbCircle
10
-44.260332574798298
20
248.85262861477963
30
-1.3017505793300188e-05
40
2.6999999999999886
210
-1.8555406345071529e-14
220
2.8641526550433555e-15
230
1
0
CIRCLE
5
146
100
AcDbEntity
8
0
100
AcDbCircle
10
-10.06284272910916
20
229.10870887817126
30
-1.3018594877678424e-05
40
2.7000000000000024
210
-1.8555406398011088e-14
220
2.8641526550433555e-15
230
1
0
CIRCLE
5
147
100
AcDbEntity
8
0
100
AcDbCircle
10
-237.3839699996156
20
137.35258678072924
30
-1.3023657494670715e-05
40
2.6999999999999886
210
-1.8555406345071529e-14
220
2.8641526550433555e-15
230
1
0
CIRCLE
5
148
100
AcDbEntity
8
0
100
AcDbCircle
10
-68.508987796180975
20
0.36477116675275312
30
-1.3031214649572576e-05
40
2.7000000000000024
210
-1.8555406398011088e-14
220
2.8641526550433555e-15
230
1
0
ENDSEC
0
SECTION
2
OBJECTS
0
DICTIONARY
5
C
100
AcDbDictionary
3
ACAD_GROUP
350
D
3
ACAD_MLINESTYLE
350
17
0
DICTIONARY
5
D
100
AcDbDictionary
0
DICTIONARY
5
1A
330
C
100
AcDbDictionary
0
DICTIONARY
5
17
100
AcDbDictionary
0
ENDSEC
0
EOF
