0
SECTION
2
HEADER
9
$INSUNITS
70
4
9
$ACADVER
1
AC1014
9
$HANDSEED
5
FFFF
0
ENDSEC
0
SECTION
2
TABLES
0
TABLE
2
VPORT
5
8
100
AcDbSymbolTable
0
ENDTAB
0
TABLE
2
LTYPE
5
5
100
AcDbSymbolTable
0
LTYPE
5
14
100
AcDbSymbolTableRecord
100
AcDbLinetypeTableRecord
2
BYBLOCK
70
0
0
LTYPE
5
15
100
AcDbSymbolTableRecord
100
AcDbLinetypeTableRecord
2
BYLAYER
70
0
0
ENDTAB
0
TABLE
2
LAYER
5
2
100
AcDbSymbolTable
70
2
0
LAYER
5
50
100
AcDbSymbolTableRecord
100
AcDbLayerTableRecord
2
0
70
0
6
CONTINUOUS
0
ENDTAB
0
TABLE
2
STYLE
5
3
100
AcDbSymbolTable
70
1
0
STYLE
5
11
100
AcDbSymbolTableRecord
100
AcDbTextStyleTableRecord
2
STANDARD
70
0
0
ENDTAB
0
TABLE
2
VIEW
5
6
100
AcDbSymbolTable
70
0
0
ENDTAB
0
TABLE
2
UCS
5
7
100
AcDbSymbolTable
70
0
0
ENDTAB
0
TABLE
2
APPID
5
9
100
AcDbSymbolTable
70
2
0
APPID
5
12
100
AcDbSymbolTableRecord
100
AcDbRegAppTableRecord
2
ACAD
70
0
0
ENDTAB
0
TABLE
2
DIMSTYLE
5
A
100
AcDbSymbolTable
70
1
0
ENDTAB
0
TABLE
2
BLOCK_RECORD
5
1
100
AcDbSymbolTable
70
1
0
BLOCK_RECORD
5
1F
100
AcDbSymbolTableRecord
100
AcDbBlockTableRecord
2
*MODEL_SPACE
0
BLOCK_RECORD
5
1B
100
AcDbSymbolTableRecord
100
AcDbBlockTableRecord
2
*PAPER_SPACE
0
ENDTAB
0
ENDSEC
0
SECTION
2
BLOCKS
0
BLOCK
5
20
100
AcDbEntity
100
AcDbBlockBegin
2
*MODEL_SPACE
0
ENDBLK
5
21
100
AcDbEntity
100
AcDbBlockEnd
0
BLOCK
5
1C
100
AcDbEntity
100
AcDbBlockBegin
2
*PAPER_SPACE
0
ENDBLK
5
1D
100
AcDbEntity
100
AcDbBlockEnd
0
ENDSEC
0
SECTION
2
ENTITIES
0
LWPOLYLINE
5
100
100
AcDbEntity
8
0
100
AcDbPolyline
90
14
70
1
43
0.0
10
-273.50261256601806
20
151.14153407467555
42
0.26794990686325115
10
-281.50268863353745
20
137.28512911985743
10
-281.50280045552563
20
97.788410923874252
42
0.2679484779991898
10
-273.50287673831883
20
83.932003331068074
10
-259.85228667109789
20
76.05073142259576
10
-245.12990326850678
20
67.550641847791582
10
-38.205053908881617
20
-51.917773525540554
42
0.26794872326061442
10
-22.205078386436217
20
-51.917804816491007
10
11.999032239113827
20
-32.170181456172259
42
0.26794847799919397
10
19.999071361075327
20
-18.313840492329181
10
20.000565018685357
20
253.38532759581042
42
0.26794990686329939
10
12.000604356449998
20
267.24179917990216
10
-22.203580539494538
20
286.98972365442103
42
0.26794847799928156
10
-38.203543378657997
20
286.98979028338334
0
CIRCLE
5
101
100
AcDbEntity
8
0
100
AcDbCircle
10
-11.352611461339537
20
-31.218438140332427
30
-4.8652921691427764e-06
40
1.6999999999999946
210
-1.8815590143693867e-14
220
3.0143737629504335e-15
230
1
0
CIRCLE
5
102
100
AcDbEntity
8
0
100
AcDbCircle
10
-11.35193896689878
20
266.29070437881478
30
-4.8572080402209394e-06
40
1.6999999999999946
210
-1.8815590143693867e-14
220
3.0143737629504335e-15
230
1
0
CIRCLE
5
103
100
AcDbEntity
8
0
100
AcDbCircle
10
-269.00274471285854
20
117.53672984165368
30
-4.8735832081092667e-06
40
1.6999999999999946
210
-1.8815590143693867e-14
220
3.0143737629504335e-15
230
1
0
CIRCLE
5
104
100
AcDbEntity
8
0
100
AcDbCircle
10
-128.36847598372822
20
63.647322156372311
30
-4.8683162390261714e-06
40
2.500000000000008
210
-1.8815590249572989e-14
220
3.0143737894202139e-15
230
1
0
CIRCLE
5
105
100
AcDbEntity
8
0
100
AcDbCircle
10
-128.33844039895658
20
171.44257860712924
30
-4.8653846818069724e-06
40
2.5000000000000009
210
-1.8815590249572989e-14
220
3.0143737894202139e-15
230
1
0
CIRCLE
5
106
100
AcDbEntity
8
0
100
AcDbCircle
10
-35.000036826657151
20
117.49692336335033
30
-4.8623832071825746e-06
40
2.5000000000000009
210
-1.8815590249572989e-14
220
3.0143737894202139e-15
230
1
0
LWPOLYLINE
5
107
100
AcDbEntity
8
0
100
AcDbPolyline
90
14
70
1
43
0.0
10
-273.50261624767785
20
151.14153610921474
42
0.26794990686324083
10
-281.50269242288607
20
137.28513096787344
10
-281.502804244873
20
97.788412240218904
42
0.26794847799921018
10
-273.50288041997726
20
83.93200446088953
10
-259.8522901690036
20
76.050732446326236
10
-245.1299065682322
20
67.550642757101031
10
-38.205054423160156
20
-51.917774224413684
42
0.26794872326060404
10
-22.205078685337355
20
-51.917805515364535
10
11.999032400636519
20
-32.170181889220039
42
0.26794847799918464
10
19.999071630286402
20
-18.313840738854633
10
20.00056528789645
20
253.38533100666888
42
0.26794990686331754
10
12.000604517971709
20
267.24180277728465
10
-22.203580838400569
20
286.98972751763341
42
0.26794847799927152
10
-38.203543892941269
20
286.98979414659669
0
CIRCLE
5
108
100
AcDbEntity
8
0
100
AcDbCircle
10
-11.352611614155972
20
-31.218438560568647
30
0
40
1.6999999999999946
210
1.3753779215800317e-22
220
-7.9414911244114394e-23
230
1
0
CIRCLE
5
109
100
AcDbEntity
8
0
100
AcDbCircle
10
-11.351939119728147
20
266.29070796339448
30
0
40
1.6999999999999946
210
1.3753779215800331e-22
220
-7.9414911244114112e-23
230
1
0
CIRCLE
5
110
100
AcDbEntity
8
0
100
AcDbCircle
10
-269.00274833394258
20
117.53673142383347
30
0
40
1.6999999999999948
210
1.3753779215800204e-22
220
-7.9414911244116369e-23
230
1
0
CIRCLE
5
111
100
AcDbEntity
8
0
100
AcDbCircle
10
-128.36847771171503
20
63.647323013138575
30
0
40
2.5000000000000084
210
1.8339126228167205e-22
220
-1.0587348968883134e-22
230
1
0
CIRCLE
5
112
100
AcDbEntity
8
0
100
AcDbCircle
10
-128.33844212654708
20
171.44258091494385
30
0
40
2.5000000000000018
210
2.2923827005876844e-22
220
-1.3234326125068081e-22
230
1
0
CIRCLE
5
113
100
AcDbEntity
8
0
100
AcDbCircle
10
-35.000037297805171
20
117.49692494499429
30
0
40
2.5000000000000018
210
2.2923503888548285e-22
220
-1.3234885780924607e-22
230
1
0
ENDSEC
0
SECTION
2
OBJECTS
0
DICTIONARY
5
C
100
AcDbDictionary
3
ACAD_GROUP
350
D
3
ACAD_MLINESTYLE
350
17
0
DICTIONARY
5
D
100
AcDbDictionary
0
DICTIONARY
5
1A
330
C
100
AcDbDictionary
0
DICTIONARY
5
17
100
AcDbDictionary
0
ENDSEC
0
EOF
